<?xml version="1.0" encoding="utf-8"?>
<!-- Generator: Adobe Illustrator 27.2.0, SVG Export Plug-In . SVG Version: 6.00 Build 0)  -->
<svg version="1.1" id="Capa_1" xmlns="http://www.w3.org/2000/svg" xmlns:xlink="http://www.w3.org/1999/xlink" x="0px" y="0px"
	 viewBox="0 0 48 48" style="enable-background:new 0 0 48 48;" xml:space="preserve">
<style type="text/css">
	.st0{fill:#EEEEEE;}
</style>
<path class="st0" d="M10.9,40.9c-1,0-1.9-0.4-2.6-1.1c-0.7-0.7-1.1-1.6-1.1-2.7c0-1,0.4-1.9,1.1-2.7s1.6-1.1,2.6-1.1
	s1.9,0.4,2.6,1.1c0.7,0.7,1.1,1.6,1.1,2.7c0,1-0.4,1.9-1.1,2.7S11.9,40.9,10.9,40.9z M24,40.9c-1,0-1.9-0.4-2.6-1.1
	s-1.1-1.6-1.1-2.7c0-1,0.4-1.9,1.1-2.7s1.6-1.1,2.6-1.1c1,0,1.9,0.4,2.6,1.1s1.1,1.6,1.1,2.7c0,1-0.4,1.9-1.1,2.7S25,40.9,24,40.9z
	 M37.2,40.9c-1,0-1.9-0.4-2.7-1.1s-1.1-1.6-1.1-2.7c0-1,0.4-1.9,1.1-2.7s1.6-1.1,2.7-1.1c1,0,1.9,0.4,2.7,1.1s1.1,1.6,1.1,2.7
	c0,1-0.4,1.9-1.1,2.7S38.2,40.9,37.2,40.9z M10.9,27.8c-1,0-1.9-0.4-2.6-1.1S7.1,25,7.1,24c0-1,0.4-1.9,1.1-2.6s1.6-1.1,2.6-1.1
	s1.9,0.4,2.6,1.1s1.1,1.6,1.1,2.6c0,1-0.4,1.9-1.1,2.6C12.8,27.4,11.9,27.8,10.9,27.8z M24,27.8c-1,0-1.9-0.4-2.6-1.1
	S20.3,25,20.2,24c0-1,0.4-1.9,1.1-2.6s1.6-1.1,2.6-1.1c1,0,1.9,0.4,2.6,1.1s1.1,1.6,1.1,2.6c0,1-0.4,1.9-1.1,2.6S25,27.8,24,27.8z
	 M37.2,27.8c-1,0-1.9-0.4-2.7-1.1S33.4,25,33.4,24c0-1,0.4-1.9,1.1-2.6s1.6-1.1,2.7-1.1c1,0,1.9,0.4,2.7,1.1s1.1,1.6,1.1,2.6
	c0,1-0.4,1.9-1.1,2.6S38.2,27.8,37.2,27.8z M10.9,14.6c-1,0-1.9-0.4-2.6-1.1c-0.7-0.7-1.1-1.6-1.1-2.6s0.4-1.9,1.1-2.6
	c0.7-0.7,1.6-1.1,2.6-1.1s1.9,0.4,2.6,1.1c0.7,0.7,1.1,1.6,1.1,2.6c0,1-0.4,1.9-1.1,2.6C12.8,14.2,11.9,14.6,10.9,14.6z M24,14.6
	c-1,0-1.9-0.4-2.6-1.1s-1.1-1.6-1.1-2.6s0.4-1.9,1.1-2.6C22.1,7.5,23,7.1,24,7.1c1,0,1.9,0.4,2.6,1.1s1.1,1.6,1.1,2.6
	s-0.4,1.9-1.1,2.6C25.9,14.2,25,14.6,24,14.6z M37.2,14.6c-1,0-1.9-0.4-2.7-1.1s-1.1-1.6-1.1-2.6s0.4-1.9,1.1-2.6
	c0.7-0.7,1.6-1.1,2.7-1.1c1,0,1.9,0.4,2.7,1.1s1.1,1.6,1.1,2.6s-0.4,1.9-1.1,2.6C39.1,14.2,38.2,14.6,37.2,14.6z"/>
</svg>
